<svg width="31" height="31" viewBox="0 0 31 31" fill="none" xmlns="http://www.w3.org/2000/svg">
<g clip-path="url(#clip0_1961_3040)">
<path d="M24.812 20.0195L21.637 19.657C21.2636 19.6132 20.8852 19.6545 20.5302 19.7779C20.1751 19.9013 19.8526 20.1036 19.587 20.3695L17.287 22.6695C13.7385 20.8648 10.8542 17.9805 9.04947 14.432L11.362 12.1195C11.8995 11.582 12.162 10.832 12.0745 10.0695L11.712 6.91953C11.6411 6.30975 11.3485 5.74733 10.8898 5.33934C10.4311 4.93136 9.83835 4.7063 9.22447 4.70703H7.06197C5.64947 4.70703 4.47446 5.88203 4.56196 7.29453C5.22446 17.9695 13.762 26.4945 24.4245 27.157C25.837 27.2445 27.012 26.0695 27.012 24.657V22.4945C27.0245 21.232 26.0745 20.1695 24.812 20.0195Z" fill="white"/>
</g>
<defs>
<clipPath id="clip0_1961_3040">
<rect width="30" height="30" fill="white" transform="translate(0.774414 0.945312)"/>
</clipPath>
</defs>
</svg>
