<svg width="25" height="25" viewBox="0 0 25 25" fill="none" xmlns="http://www.w3.org/2000/svg">
<mask id="mask0_4865_471" style="mask-type:alpha" maskUnits="userSpaceOnUse" x="0" y="0" width="25" height="25">
<rect x="0.364014" y="0.891235" width="24" height="24" fill="#D9D9D9"/>
</mask>
<g mask="url(#mask0_4865_471)">
<path d="M12.3657 22.3912C11.0517 22.3912 9.8167 22.1419 8.66056 21.6432C7.50441 21.1445 6.49873 20.4678 5.64351 19.6129C4.78828 18.7581 4.11122 17.7528 3.61234 16.5972C3.11346 15.4416 2.86401 14.2068 2.86401 12.8929C2.86401 11.579 3.11339 10.3439 3.61214 9.18779C4.11089 8.03164 4.78776 7.02595 5.64276 6.17074C6.49776 5.3155 7.50318 4.63844 8.65901 4.13956C9.81483 3.64068 11.0498 3.39124 12.364 3.39124C13.4174 3.39124 14.4141 3.54957 15.354 3.86624C16.294 4.1829 17.1563 4.62457 17.9409 5.19124L16.8563 6.30084C16.2102 5.85597 15.5102 5.50981 14.7565 5.26236C14.0028 5.01493 13.2053 4.89121 12.364 4.89121C10.1473 4.89121 8.25982 5.67038 6.70149 7.22871C5.14316 8.78704 4.36399 10.6745 4.36399 12.8912C4.36399 15.1079 5.14316 16.9954 6.70149 18.5537C8.25982 20.112 10.1473 20.8912 12.364 20.8912C14.5807 20.8912 16.4682 20.112 18.0265 18.5537C19.5848 16.9954 20.364 15.1079 20.364 12.8912C20.364 12.5399 20.3409 12.1925 20.2948 11.849C20.2486 11.5054 20.1794 11.1714 20.0871 10.847L21.2986 9.62584C21.4819 10.1399 21.622 10.6688 21.7188 11.2124C21.8156 11.756 21.864 12.3156 21.864 12.8912C21.864 14.2054 21.6146 15.4404 21.116 16.5962C20.6173 17.752 19.9405 18.7574 19.0857 19.6124C18.2309 20.4674 17.2256 21.1443 16.07 21.6431C14.9144 22.1418 13.6796 22.3912 12.3657 22.3912ZM10.9448 17.145L7.04094 13.2412L8.09476 12.1874L10.9448 15.0374L20.8101 5.15664L21.864 6.21046L10.9448 17.145Z" fill="#18814C"/>
</g>
</svg>
