<svg width="101" height="100" viewBox="0 0 101 100" fill="none" xmlns="http://www.w3.org/2000/svg">
<g clip-path="url(#clip0_1990_2982)">
<g clip-path="url(#clip1_1990_2982)">
<path d="M45.5866 97.5388L44.7482 96.2588L43.3385 97.2632L41.9283 98.2666L40.9472 96.9523C40.0699 95.7773 39.8398 95.7051 38.7819 96.2709C37.7215 96.8387 37.4832 96.7605 36.4955 95.5219C35.5496 94.3358 35.2413 94.2207 34.3227 94.7123C32.8186 95.5168 32.6914 95.4654 32.117 93.8159C31.6416 92.4532 31.4881 92.38 30.0012 92.8065C29.1195 93.0588 28.3573 93.2658 28.3084 93.2658C28.2594 93.2658 28.0646 92.5642 27.8763 91.7052C27.5583 90.2591 27.412 90.1673 25.8827 90.454C24.3619 90.7391 24.208 90.6458 23.9329 89.2729C23.6846 88.0298 23.3575 87.7542 21.9751 87.6215C20.5876 87.4882 20.2893 87.2343 20.1561 86.074C20.0228 84.9192 19.7523 84.686 18.5475 84.686C17.2822 84.686 17.0788 84.4785 16.9405 83.0456C16.8017 81.6036 16.5841 81.3861 15.1447 81.2473C13.6416 81.1024 13.5169 80.9566 13.6305 79.4808C13.7395 78.0645 13.5881 77.853 12.3661 77.7122C11.1503 77.5724 10.9782 77.3362 10.9782 75.8074C10.9782 74.3957 10.7293 73.9672 9.67698 73.5669C8.55447 73.1404 8.42072 72.8653 8.70589 71.5672C8.98954 70.2751 8.84771 69.9763 7.7025 69.4544C6.40384 68.8629 6.33217 68.4652 7.16194 66.4614C7.4042 65.8759 7.07411 65.4752 5.97281 65.0189C4.46469 64.3941 4.45662 64.3703 5.23692 62.8607C6.06265 61.2643 6.06769 61.2759 3.97864 60.013C3.40982 59.6688 3.44868 59.3513 4.1982 58.2071C5.09307 56.8409 5.08853 56.804 3.91202 55.9167C2.74156 55.0334 2.735 54.9855 3.60918 53.651C4.47378 52.3316 4.46923 52.2519 3.45928 51.1768L2.41602 50.0664L3.49613 48.9863C4.53838 47.9436 4.54545 47.8603 3.696 46.5637C2.84604 45.2665 2.85311 45.1822 3.92312 44.0441C4.95932 42.9408 4.978 42.7929 4.22091 41.7117C3.45373 40.6165 3.47997 40.5024 4.74279 39.4955C6.04145 38.4603 6.05255 38.4018 5.20815 37.1132C4.35214 35.806 4.35971 35.7833 5.90214 34.9853C7.20938 34.3095 7.37897 34.0233 6.94894 33.2198C6.16561 31.7561 6.32056 31.216 7.70451 30.5851C8.77705 30.0965 8.92797 29.7664 8.68065 28.4481C8.42324 27.0727 8.56154 26.8234 9.85868 26.3338C11.121 25.8574 11.2982 25.5641 11.1074 24.2644C10.907 22.9007 11.0448 22.7175 12.4868 22.4293C13.9565 22.1355 14.0615 21.9856 13.7602 20.6138C13.4589 19.2424 13.5709 19.0829 15.1073 18.6877C16.415 18.3511 16.8173 17.9584 16.942 16.8975C17.0742 15.775 17.3538 15.5388 18.5505 15.5388C19.8159 15.5388 20.0193 15.3313 20.1576 13.8984C20.3039 12.3827 20.4412 12.2682 21.968 12.3873C23.4519 12.5034 23.6523 12.3565 23.9344 10.9448C24.2251 9.49319 24.375 9.39426 25.9094 9.64359C27.4246 9.88939 27.5987 9.78189 27.898 8.42065C28.2019 7.03518 28.3482 6.9519 29.9487 7.25221C30.8966 7.42987 31.6718 7.36628 31.6718 7.11089C31.6718 6.8555 31.9626 6.24932 32.3179 5.76327C32.8478 5.039 33.2133 4.9749 34.3509 5.40744C35.586 5.87684 35.8005 5.7976 36.3092 4.68014C36.9502 3.27347 37.3247 3.17353 38.8652 3.99825C39.7802 4.48784 40.0896 4.37831 40.9941 3.24319C41.9985 1.9839 42.1126 1.95715 43.2078 2.72433C44.291 3.48344 44.4378 3.46274 45.5825 2.38667C46.7273 1.31161 46.8605 1.29243 47.7312 2.0803C48.939 3.17353 49.4871 3.14022 50.6061 1.90365L51.5267 0.88562L52.6552 1.94554C53.7343 2.96004 53.8413 2.96862 55.0926 2.14844C56.3544 1.3217 56.4351 1.33281 57.3467 2.45885C58.2753 3.60558 58.3167 3.61012 59.6825 2.71525C61.1321 1.76535 61.1326 1.76586 62.3979 3.85592C62.7411 4.42374 63.0717 4.40456 64.3472 3.74488C65.8689 2.95852 65.8896 2.96559 66.515 4.47623C66.9712 5.57754 67.372 5.90763 67.958 5.66536C69.9617 4.83559 70.3589 4.90726 70.951 6.20541C71.4744 7.35467 71.7691 7.49347 73.0774 7.20628C74.423 6.91051 74.6531 7.03669 75.0963 8.30759C75.5051 9.48057 75.8902 9.74201 77.2015 9.73848C78.4946 9.73495 78.8676 9.97873 79.1215 10.9952C79.3789 12.0279 79.7236 12.2444 81.0147 12.1864C82.433 12.1218 82.6086 12.2752 82.7474 13.7006C82.8817 15.0815 83.1123 15.3061 84.5417 15.4439C85.9726 15.5822 86.182 15.7861 86.182 17.0439C86.182 18.236 86.4445 18.5439 87.6962 18.819C88.9605 19.0966 89.2104 19.3969 89.2104 20.638C89.2104 21.8887 89.4527 22.1734 90.7352 22.4298C92.1454 22.7119 92.2367 22.8588 91.95 24.3856C91.6623 25.9184 91.7532 26.0613 93.2214 26.3843C94.83 26.7376 94.8689 26.9127 93.9099 29.4722C93.7943 29.7796 94.3747 30.31 95.1989 30.6517C96.6086 31.2357 96.6657 31.3659 96.1514 32.8412C95.7824 33.8996 95.7728 34.4654 96.1211 34.582C96.4057 34.6764 97.0679 35.0716 97.5928 35.4592C98.358 36.024 98.4226 36.291 97.9169 36.8038C96.9857 37.7476 97.1457 38.7329 98.3964 39.7448C99.4598 40.6064 99.4709 40.6983 98.6568 41.9404C97.8321 43.1992 97.8467 43.2688 99.1535 44.2964L100.5 45.3559L99.4068 46.4491L98.3136 47.5423L99.4018 48.7007L100.49 49.8595L99.3049 51.1213L98.1193 52.3831L99.2196 53.5541L100.32 54.7251L99.0838 55.8869C97.9053 56.9938 97.8861 57.1068 98.6699 58.3025C99.4533 59.4987 99.4356 59.5987 98.2863 60.4653C97.1901 61.2925 97.1396 61.5025 97.7261 62.7885C98.2863 64.0195 98.2545 64.2876 97.4788 64.8544C96.9892 65.2127 96.3785 65.5055 96.1211 65.5055C95.6683 65.5055 95.7996 66.3968 96.5026 68.0957C96.754 68.7029 96.4451 69.0572 95.3231 69.4484C93.9104 69.941 93.8352 70.0904 94.2576 71.5626C94.6796 73.0339 94.6044 73.1843 93.1982 73.6744C91.895 74.1287 91.7057 74.4214 91.8355 75.7842C91.9687 77.1797 91.8223 77.3857 90.5984 77.5265C89.3961 77.6648 89.2104 77.9101 89.2104 79.3561C89.2104 80.8077 89.0125 81.0656 87.6962 81.3291C86.4228 81.5834 86.182 81.8691 86.182 83.1264C86.182 84.4437 85.9877 84.6405 84.5417 84.7794C83.1254 84.9161 82.8811 85.1478 82.7509 86.4737C82.6116 87.899 82.4774 87.996 80.8966 87.8112C79.342 87.6295 79.1785 87.7385 79.0281 89.0508C78.8822 90.3253 78.6632 90.4893 77.1081 90.4893C75.7514 90.4893 75.3103 90.7189 75.1664 91.4987C74.8788 93.0558 74.3528 93.3486 72.8619 92.7818C71.598 92.3013 71.4486 92.3815 70.953 93.8033C70.6572 94.6523 70.1586 95.2504 69.8446 95.1322C67.9782 94.4327 67.0005 94.2571 66.9864 94.6195C66.9778 94.8466 66.6634 95.4371 66.2883 95.9317C65.7013 96.705 65.4152 96.7438 64.2387 96.2078C63.0071 95.6466 62.7795 95.7061 61.9507 96.8044C61.1043 97.9269 60.9262 97.9683 59.7249 97.3253C58.5489 96.6959 58.3056 96.7317 57.2846 97.6836C56.1565 98.7365 56.1449 98.7365 54.9391 97.7538C53.7313 96.7696 53.7227 96.7696 52.5417 97.88L51.3561 98.9939L50.1796 97.8885L49.0036 96.7832L48.0824 97.8007C46.8933 99.1145 46.5986 99.0842 45.5866 97.5388ZM58.7079 93.7453C74.4694 90.9536 87.7184 79.9426 93.0761 65.1829C95.8864 57.4405 96.4572 46.9245 94.4827 39.2603C93.4157 35.118 90.4419 28.6661 87.8249 24.8161C83.3097 18.1739 74.8919 11.5706 67.3129 8.7255C57.2412 4.94411 44.9067 4.98852 35.2301 8.84058C21.4118 14.3421 11.3062 26.3323 8.13656 40.9865C6.60119 48.0844 7.4461 59.0702 10.0368 65.7023C16.7345 82.8478 32.8065 94.0738 50.8847 94.2333C53.5405 94.2566 57.061 94.0365 58.7079 93.7453ZM42.271 92.0671C33.2678 89.9815 26.1179 85.8337 19.8411 79.0548C0.500084 58.1632 6.8374 24.111 32.4087 11.5232C39.1594 8.20059 43.3915 7.26786 51.6084 7.29107C57.8029 7.30874 59.2318 7.47934 63.1919 8.67604C75.2406 12.3166 84.5291 20.0414 89.9523 30.9329C97.3516 45.7904 95.4639 63.4891 85.0363 77.0339C80.4852 82.9447 72.7382 88.2801 64.9836 90.8431C60.5976 92.2932 59.5427 92.4406 52.6179 92.5693C47.7791 92.6591 44.0452 92.4784 42.271 92.0671ZM56.9752 90.7432C73.6523 88.3306 86.8902 76.4867 91.3348 60.0014C92.9347 54.0679 92.7914 45.0121 91.0022 39.0084C88.9944 32.2709 86.0862 27.1727 81.4407 22.2486C76.6947 17.2175 71.3982 13.6052 65.7998 11.5807C45.79 4.345 23.9026 13.0757 14.755 31.9423C11.3678 38.9287 10.7414 41.8208 10.7657 50.3647C10.7843 56.9953 10.9196 58.0865 12.2026 61.9734C13.8662 67.0146 14.9448 69.2414 17.6688 73.262C26.239 85.9079 41.9864 92.911 56.9752 90.7432ZM42.7889 86.9537C38.6592 86.023 32.3391 82.984 28.2952 79.984C22.1093 75.3955 16.5629 66.9141 14.7005 59.1974C13.5805 54.558 13.5679 45.7092 14.6748 41.1636C19.5085 21.3063 38.8778 9.08335 59.3196 12.9899C68.5571 14.7554 78.7343 21.8337 83.5852 29.8664C87.7765 36.8073 89.4148 43.3693 89.0802 51.8789C88.6814 62.0274 85.4865 69.2283 78.1065 76.6129C73.2465 81.4764 69.08 84.1131 63.2171 86.0361C58.1593 87.6951 48.0875 88.1474 42.7889 86.9537ZM54.3844 78.329C54.3844 76.9279 54.6186 76.4539 55.4141 76.246C56.5452 75.9502 56.4957 74.8428 55.352 74.8428C54.9583 74.8428 54.3657 75.6383 54.0346 76.6094C53.703 77.5815 53.4189 78.0534 53.4037 77.6592C53.3709 76.8436 51.9214 75.0952 51.2778 75.0952C50.4425 75.0952 50.8685 76.5836 51.8547 77.1116C52.4069 77.4068 52.999 78.2099 53.1716 78.8958C53.6374 80.7522 54.3844 80.4034 54.3844 78.329ZM36.495 75.0957C37.1612 75.0957 38.2918 71.5344 38.9772 67.2745C39.4148 64.5561 40.2239 61.3995 40.7761 60.2599C41.3277 59.1202 41.6689 58.5877 41.5336 59.0768C40.9684 61.1285 40.6524 66.582 40.9749 68.7337C41.4453 71.872 43.9508 74.5915 46.3684 74.589C49.6622 74.5854 52.4907 71.8322 53.3659 67.7772L53.693 66.263L54.7615 68.6469C55.944 71.2856 58.2996 73.0718 60.6006 73.0748C65.504 73.0814 66.8859 67.3654 63.9742 59.1161C62.2818 54.3213 62.2016 53.9417 63.0657 54.8058C64.4865 56.2266 64.4264 55.202 62.9244 52.3831C62.036 50.7175 61.1225 49.3548 60.8933 49.3548C60.6642 49.3548 60.2231 49.8287 59.9132 50.4076C59.2212 51.7007 60.2801 56.9847 62.5766 63.694C64.0655 68.0427 64.0847 68.2143 63.1717 68.8826C62.1244 69.6482 59.8577 69.3686 58.0992 68.2572C56.7349 67.3946 55.3939 63.5184 55.3939 60.4375C55.3939 57.5051 54.662 53.5364 53.7086 51.3005L52.9868 49.6072L52.198 51.4191C51.5014 53.0201 51.4929 53.5793 52.1222 56.214C53.0691 60.1806 53.0762 66.1671 52.1354 67.9867C51.2254 69.7461 48.2046 71.2628 46.4749 70.8288C45.7804 70.6546 44.6306 69.9304 43.92 69.2197L42.6274 67.9271L42.9666 61.1643C43.2548 55.4226 43.1952 54.402 42.5704 54.402C40.8543 54.402 38.578 59.4912 37.7179 65.2536C36.7569 71.6908 35.805 73.2706 33.6842 71.9462C31.8682 70.8121 30.6033 66.8647 30.7669 62.8415C30.9132 59.2388 30.9294 59.2009 32.4224 58.944C33.3117 58.7911 33.9996 58.3268 34.0981 57.8135C34.2772 56.8858 31.9464 54.4015 30.8971 54.4015C30.0209 54.4015 29.3991 57.9709 30.1905 58.4595C30.8638 58.8764 27.7794 61.3415 24.4306 63.0636C23.3626 63.6127 22.6136 64.1866 22.766 64.339C22.9179 64.4915 24.5578 63.7833 26.4086 62.7658C29.6348 60.9927 29.762 60.9639 29.4823 62.0794C29.0256 63.8989 29.9745 69.3509 31.1813 71.8443C32.2831 74.1206 34.3772 75.7625 35.6248 75.3294C35.9943 75.2007 36.386 75.0957 36.495 75.0957ZM32.4289 57.4304C32.2573 57.1528 32.3578 56.9256 32.6515 56.9256C32.9453 56.9256 33.186 57.1528 33.186 57.4304C33.186 57.708 33.0861 57.9351 32.9634 57.9351C32.8408 57.9351 32.6 57.708 32.4289 57.4304ZM30.41 56.9256C30.2384 56.6481 30.4519 56.4209 30.885 56.4209C31.3175 56.4209 31.6718 56.6481 31.6718 56.9256C31.6718 57.2032 31.4583 57.4304 31.1969 57.4304C30.9354 57.4304 30.5811 57.2032 30.41 56.9256ZM73.4963 71.6903C73.7926 70.371 74.1731 68.0422 74.3422 66.5154C74.5946 64.228 73.5115 48.2282 72.2915 36.232L72.0089 33.456L73.0042 34.7102C73.5518 35.4002 74.1166 35.8474 74.2595 35.7045C74.4669 35.4971 72.6948 29.5903 71.2372 25.6327C71.0403 25.0988 70.6946 25.3955 70.0642 26.6422C69.3071 28.1377 69.2334 29.028 69.5847 32.4465C70.312 39.5217 71.5259 57.3966 71.8711 66.1187C72.0543 70.7586 72.3743 74.4502 72.5812 74.322C72.7882 74.1938 73.2 73.0097 73.4963 71.6903ZM28.1524 52.053C28.8388 51.5942 30.0249 50.6433 30.7886 49.9398C31.5517 49.2367 32.1766 48.8849 32.1766 49.1574C32.1766 49.43 32.5576 50.124 33.0235 50.6979L33.8704 51.7416L36.7675 50.0432C38.361 49.1095 39.9251 48.3453 40.2426 48.3453C40.5605 48.3453 40.7549 47.9476 40.6751 47.4621C40.5949 46.976 40.6832 46.3345 40.8714 46.0357C41.2722 45.3972 35.1327 44.0335 33.9325 44.4943C33.5085 44.6568 32.9543 45.3059 32.701 45.9368C32.3386 46.8392 32.2336 46.4804 32.2084 44.2515C32.167 40.5852 31.6345 36.7362 31.1686 36.7362C30.9678 36.7362 30.8284 39.0317 30.8592 41.8374L30.9148 46.9377L28.9378 48.6512C26.9037 50.4137 26.9693 50.8367 29.0927 49.6596C29.7559 49.2922 30.5998 48.4483 30.9672 47.7851C31.4856 46.8503 31.64 46.7772 31.6537 47.459C31.6638 47.9431 30.729 49.0217 29.5772 49.8565C26.4444 52.1262 23.5963 51.7472 23.5963 49.06C23.5963 47.6998 25.4168 47.0714 26.0548 48.2111C26.3626 48.7612 26.885 48.894 27.8203 48.6593C28.9887 48.366 29.1482 48.0738 29.1482 46.2204C29.1482 44.2606 29.1997 44.1824 29.8892 45.0944C30.3671 45.7263 30.6361 45.8333 30.6462 45.3967C30.6553 45.0237 30.1996 44.1309 29.6343 43.4122C28.9004 42.4789 28.639 41.4806 28.7197 39.9195C28.7853 38.6587 28.5582 37.469 28.1847 37.1087C27.6593 36.6029 27.57 36.9391 27.7153 38.8828C27.9172 41.5916 27.2666 41.8006 26.2668 39.3491C25.6823 37.9172 25.7146 37.6512 26.5595 36.9275C27.1127 36.454 27.4054 35.7181 27.26 35.164C26.9067 33.8128 26.1199 33.9844 26.1199 35.4128C26.1199 36.5959 25.0191 37.9909 24.4972 37.469C24.3498 37.3217 24.1101 37.6568 23.9647 38.2135C23.8188 38.7702 23.8522 39.1765 24.0379 39.117C24.2241 39.0569 25.1947 39.9164 26.1956 41.0268C28.374 43.444 29.3052 47.1138 27.8799 47.6604C26.771 48.0859 26.0416 46.9614 26.2718 45.1812C26.3712 44.4125 26.1507 43.5328 25.7817 43.2264C25.2618 42.7954 25.1104 42.8938 25.1104 43.6625C25.1104 44.2091 24.6562 45.0667 24.101 45.5694C23.3752 46.2255 23.0915 47.1239 23.0915 48.7622C23.0915 52.4856 25.33 53.9407 28.1524 52.053ZM34.1955 49.6485C34.1955 49.375 37.5559 47.8411 38.155 47.8411C38.3216 47.8411 38.0097 48.151 37.4625 48.5301C36.3012 49.3336 34.1955 50.0543 34.1955 49.6485ZM33.6907 47.6473C33.6907 47.1996 35.7328 46.9654 35.9913 47.3838C36.1467 47.6352 35.6925 47.8411 34.9823 47.8411C34.2722 47.8411 33.6907 47.7543 33.6907 47.6473ZM24.1954 46.2951C24.317 45.9307 24.7147 45.5335 25.0786 45.4119C25.4572 45.2857 25.6464 45.475 25.5203 45.8535C25.3991 46.2179 25.0014 46.6156 24.637 46.7368C24.2585 46.863 24.0692 46.6737 24.1954 46.2951ZM33.6923 45.6188C33.9628 45.3483 35.0272 45.372 36.3168 45.6774L38.4856 46.1912L35.8611 46.1326C34.3015 46.0983 33.4217 45.8894 33.6923 45.6188ZM79.9659 51.834C82.4829 50.6156 82.7186 50.1008 80.7563 50.1078C79.9926 50.1099 79.3617 49.8853 79.3531 49.6077C79.3451 49.3301 79.6292 49.1696 79.984 49.2513C80.7007 49.4154 80.8809 48.0551 80.1985 47.6342C79.4642 47.1799 77.4422 49.7258 77.7991 50.6555C77.9778 51.1208 77.8647 51.8138 77.5487 52.1949C76.7452 53.1634 77.4306 53.061 79.9659 51.834ZM31.9767 51.0062C31.4639 50.4929 31.0404 51.2657 31.4614 51.9465C31.7793 52.4614 31.8985 52.4614 32.0691 51.9486C32.1862 51.5978 32.1448 51.1738 31.9767 51.0062ZM38.2333 51.3444C38.2333 51.083 37.8926 50.8695 37.4762 50.8695C36.6959 50.8695 36.4733 51.465 37.0421 52.0334C37.4449 52.4366 38.2333 51.9809 38.2333 51.3444ZM52.3655 46.2114C52.3655 45.9085 52.6669 45.9489 53.1004 46.3083C53.5047 46.6439 54.0725 46.7721 54.3622 46.5929C55.0133 46.1907 55.0396 43.8129 54.4041 42.8085C53.6455 41.6093 53.1559 42.6687 53.8075 44.0986C54.2815 45.1383 54.2719 45.3644 53.7631 45.1969C53.4108 45.0808 53.0464 44.4357 52.9535 43.7635C52.6416 41.5058 51.8608 41.4922 51.8608 43.7443C51.8608 46.2427 50.8019 46.4228 50.28 44.0138C49.9686 42.5753 49.96 42.5824 49.9015 44.3333C49.8687 45.3185 50.0968 46.3799 50.4082 46.6914C51.0421 47.3253 52.3655 47.0013 52.3655 46.2114ZM25.1104 41.4437C25.1104 41.0753 24.7455 40.7745 24.2993 40.7745C23.8158 40.7745 23.5968 41.0566 23.7568 41.4735C23.9041 41.8581 23.6629 42.7101 23.2202 43.3662L22.4157 44.5599L23.7633 43.3365C24.5038 42.6637 25.1104 41.8122 25.1104 41.4437ZM39.0787 43.9754C38.896 43.7927 38.9888 43.3511 39.2856 42.9943C39.6964 42.4991 39.5758 42.3644 38.7758 42.4244C38.1999 42.4678 37.7285 42.5501 37.7285 42.6071C37.7285 43.2264 38.4579 44.3075 38.8763 44.3075C39.17 44.3075 39.2614 44.1581 39.0787 43.9754ZM63.8586 43.3925C63.9686 43.0629 63.6986 42.7934 63.259 42.7934C62.2763 42.7934 62.2748 42.6985 63.2237 40.4282C63.6436 39.4228 63.8737 38.4871 63.7349 38.3483C63.3932 38.0061 61.9553 41.5164 61.9553 42.6929C61.9553 44.3106 63.3786 44.8335 63.8581 43.3925H63.8586ZM36.4667 42.0479C37.8547 41.3938 38.7355 40.8401 38.4235 40.8169C37.7588 40.7674 33.186 42.7348 33.186 43.07C33.186 43.4788 33.9007 43.2567 36.4667 42.0479ZM35.962 39.9962C37.5579 39.2906 38.7445 38.5941 38.5987 38.4487C38.4533 38.3033 37.0058 38.8696 35.3816 39.7075C31.7576 41.5775 32.0534 41.7249 35.962 39.9962ZM45.789 39.7731C46.8691 39.2225 51.459 37.3938 55.9894 35.7096C66.7966 31.692 65.9012 32.0776 64.9574 31.8464C63.368 31.4568 43.7771 38.9984 43.4026 40.1441C43.1225 41.0006 43.4965 40.9426 45.789 39.7731ZM34.6962 38.2645C35.3089 37.8774 35.3281 37.6679 34.8011 37.141C34.2742 36.6135 34.0647 36.6332 33.6776 37.2459C32.7565 38.7026 33.239 39.1856 34.6962 38.2645ZM31.741 35.6924C32.867 35.118 33.6751 34.5341 33.5363 34.3953C33.2642 34.1237 29.1482 36.0932 29.1482 36.4949C29.1482 36.9169 29.6388 36.7649 31.741 35.6924ZM56.525 28.4461C66.0001 25.2835 68.5374 24.1711 64.7313 24.8494C58.6428 25.9336 39.2427 33.3217 39.2427 34.5563C39.2427 34.9313 40.7412 34.4826 43.1422 33.3883C45.2868 32.4112 51.3086 30.1874 56.525 28.4461ZM38.5043 28.0978C38.7375 27.3634 38.5194 26.7048 37.8093 25.9941L36.7746 24.9594L36.1755 26.2737C35.8464 26.9965 35.7132 27.9429 35.8797 28.3769C36.3254 29.5378 38.1076 29.349 38.5043 28.0978ZM36.4667 27.6521C36.2951 27.3746 36.5086 27.1474 36.9417 27.1474C37.3742 27.1474 37.7285 27.3746 37.7285 27.6521C37.7285 27.9297 37.515 28.1569 37.2536 28.1569C36.9921 28.1569 36.6378 27.9297 36.4667 27.6521ZM50.653 25.3395C50.4844 24.9004 50.3466 24.3502 50.3466 24.1166C50.3466 23.4963 47.8129 20.586 47.2734 20.586C46.4108 20.586 46.8115 21.5157 48.3277 23.0319C49.1605 23.8647 49.8419 24.9044 49.8419 25.342C49.8419 25.7796 50.0933 26.138 50.4006 26.138C50.708 26.138 50.8216 25.7786 50.653 25.3395Z" fill="#111111"/>
</g>
</g>
<defs>
<clipPath id="clip0_1990_2982">
<rect width="100" height="100" fill="white" transform="translate(0.5)"/>
</clipPath>
<clipPath id="clip1_1990_2982">
<rect width="100" height="100" fill="white" transform="translate(0.5)"/>
</clipPath>
</defs>
</svg>
