<svg width="24" height="24" viewBox="0 0 24 24" fill="none" xmlns="http://www.w3.org/2000/svg">
<mask id="mask0_2047_3022" style="mask-type:alpha" maskUnits="userSpaceOnUse" x="0" y="0" width="24" height="24">
<rect width="24" height="24" fill="#D9D9D9"/>
</mask>
<g mask="url(#mask0_2047_3022)">
<path d="M10.5616 14.4923L8.06537 11.9962C7.97179 11.9026 7.85705 11.8526 7.72115 11.8462C7.58525 11.8397 7.4641 11.8897 7.3577 11.9962C7.25128 12.1026 7.19808 12.2205 7.19808 12.35C7.19808 12.4795 7.25128 12.5974 7.3577 12.7038L9.99615 15.3423C10.1577 15.5038 10.3462 15.5846 10.5616 15.5846C10.7769 15.5846 10.9654 15.5038 11.1269 15.3423L16.6039 9.86538C16.6974 9.77179 16.7474 9.65705 16.7538 9.52115C16.7603 9.38525 16.7103 9.2641 16.6039 9.1577C16.4974 9.05128 16.3795 8.99807 16.25 8.99807C16.1205 8.99807 16.0026 9.05128 15.8962 9.1577L10.5616 14.4923ZM12.0034 21C10.7588 21 9.58872 20.7638 8.4931 20.2915C7.39748 19.8192 6.44444 19.1782 5.63397 18.3685C4.82352 17.5588 4.18192 16.6066 3.70915 15.512C3.23638 14.4174 3 13.2479 3 12.0034C3 10.7588 3.23616 9.58872 3.70848 8.4931C4.18081 7.39748 4.82183 6.44444 5.63153 5.63398C6.44123 4.82353 7.39337 4.18192 8.48795 3.70915C9.58255 3.23638 10.7521 3 11.9966 3C13.2412 3 14.4113 3.23616 15.5069 3.70847C16.6025 4.18081 17.5556 4.82182 18.366 5.63152C19.1765 6.44122 19.8181 7.39337 20.2908 8.48795C20.7636 9.58255 21 10.7521 21 11.9966C21 13.2412 20.7638 14.4113 20.2915 15.5069C19.8192 16.6025 19.1782 17.5556 18.3685 18.366C17.5588 19.1765 16.6066 19.8181 15.512 20.2909C14.4174 20.7636 13.2479 21 12.0034 21ZM12 20C14.2333 20 16.125 19.225 17.675 17.675C19.225 16.125 20 14.2333 20 12C20 9.76667 19.225 7.875 17.675 6.325C16.125 4.775 14.2333 4 12 4C9.76667 4 7.875 4.775 6.325 6.325C4.775 7.875 4 9.76667 4 12C4 14.2333 4.775 16.125 6.325 17.675C7.875 19.225 9.76667 20 12 20Z" fill="#18814C"/>
</g>
</svg>
