<svg width="25" height="25" viewBox="0 0 25 25" fill="none" xmlns="http://www.w3.org/2000/svg">
<mask id="mask0_2125_3018" style="mask-type:alpha" maskUnits="userSpaceOnUse" x="0" y="0" width="25" height="25">
<rect x="0.121094" y="0.40625" width="24" height="24" fill="#D9D9D9"/>
</mask>
<g mask="url(#mask0_2125_3018)">
<path d="M7.49415 13.1563L12.6634 18.3256C12.8121 18.4743 12.8855 18.6483 12.8836 18.8477C12.8817 19.047 12.8031 19.2243 12.648 19.3794C12.4929 19.5243 12.3172 19.5993 12.1211 19.6044C11.9249 19.6095 11.7493 19.5345 11.5942 19.3794L5.25382 13.039C5.16024 12.9454 5.09421 12.8467 5.05575 12.7429C5.01728 12.639 4.99805 12.5269 4.99805 12.4064C4.99805 12.2858 5.01728 12.1737 5.05575 12.0698C5.09421 11.966 5.16024 11.8673 5.25382 11.7737L11.5942 5.43331C11.7326 5.29484 11.9041 5.22401 12.1086 5.22081C12.3131 5.21761 12.4929 5.28844 12.648 5.43331C12.8031 5.58842 12.8807 5.76662 12.8807 5.96791C12.8807 6.16919 12.8031 6.34739 12.648 6.50251L7.49415 11.6564H18.8711C19.0839 11.6564 19.2621 11.7282 19.4057 11.8718C19.5493 12.0153 19.6211 12.1935 19.6211 12.4064C19.6211 12.6192 19.5493 12.7974 19.4057 12.941C19.2621 13.0845 19.0839 13.1563 18.8711 13.1563H7.49415Z" fill="black"/>
</g>
</svg>
