<svg width="88" height="88" viewBox="0 0 88 88" fill="none" xmlns="http://www.w3.org/2000/svg">
<rect width="88" height="88" rx="44" fill="#FFFDFA" fill-opacity="0.2"/>
<g clip-path="url(#clip0_1688_26771)">
<path d="M35.1999 58.8002H35.9999L37.1999 58.2002L56.7999 46.8002L58.3999 45.4002C58.7999 45.0002 58.9999 44.6002 58.9999 44.0002C58.9999 43.4002 58.9999 43.0002 58.3999 42.6002C57.9375 42.1135 57.3966 41.7079 56.7999 41.4002L37.3999 29.8002L35.9999 29.4002L34.9999 29.2002C34.1999 29.2002 33.5999 29.4002 32.9999 30.0002C32.5999 30.4002 32.3999 31.2002 32.3999 32.0002V56.0002C32.3999 56.8002 32.5999 57.6002 33.1999 58.0002C33.5999 58.6002 34.1999 58.8002 34.9999 58.8002H35.1999Z" fill="#FFFDFA"/>
</g>
<defs>
<clipPath id="clip0_1688_26771">
<rect width="48" height="48" fill="white" transform="translate(20 20)"/>
</clipPath>
</defs>
</svg>
