<svg width="256" height="256" viewBox="0 0 256 256" fill="none" xmlns="http://www.w3.org/2000/svg">
<path d="M70 215.736C65.776 215.736 62.064 214.712 58.864 212.664C55.664 210.616 53.168 207.736 51.376 204.024C49.584 200.376 48.688 196.184 48.688 191.448C48.688 187.992 49.136 183.992 50.032 179.448C50.992 174.84 52.592 169.816 54.832 164.376C57.136 158.936 60.304 153.304 64.336 147.48L66.832 148.92C63.824 154.168 61.52 158.648 59.92 162.36C58.384 166.072 57.328 169.304 56.752 172.056C56.24 174.808 55.984 177.4 55.984 179.832C55.984 183.288 56.688 186.424 58.096 189.24C59.568 192.12 61.776 194.392 64.72 196.056C67.728 197.72 71.472 198.552 75.952 198.552C80.368 198.552 84.336 197.816 87.856 196.344C91.44 194.872 94.48 193.016 96.976 190.776C99.472 188.6 101.392 186.424 102.736 184.248C104.08 182.072 104.752 180.312 104.752 178.968C104.752 177.688 104.144 176.568 102.928 175.608C101.776 174.648 99.6 173.528 96.4 172.248C92.88 170.84 91.12 168.248 91.12 164.472C91.12 163.064 91.408 161.272 91.984 159.096C92.624 156.92 93.456 154.552 94.48 151.992C95.568 149.432 96.784 146.904 98.128 144.408C99.472 141.848 100.848 139.48 102.256 137.304C105.072 132.952 108.016 129.368 111.088 126.552C114.224 123.736 117.264 122.328 120.208 122.328C123.088 122.328 124.528 123.224 124.528 125.016C124.528 125.464 124.368 126.104 124.048 126.936L119.44 137.496L118.576 137.688C118.064 137.176 117.072 136.92 115.6 136.92C114.064 136.92 112.368 137.464 110.512 138.552C108.656 139.576 106.864 140.92 105.136 142.584C103.408 144.248 102 146.008 100.912 147.864C99.824 149.656 99.28 151.288 99.28 152.76C99.28 155.512 101.52 157.752 106 159.48C107.92 160.184 109.296 161.08 110.128 162.168C111.024 163.192 111.472 164.728 111.472 166.776C111.472 169.336 110.992 172.504 110.032 176.28C109.136 180.056 107.728 184.024 105.808 188.184C103.888 192.344 101.488 196.28 98.608 199.992C94.704 205.048 90.256 208.92 85.264 211.608C80.336 214.36 75.248 215.736 70 215.736ZM130.898 189.528L130.514 187.416C132.306 186.328 134.322 184.984 136.562 183.384C138.866 181.848 141.138 180.216 143.378 178.488C145.682 176.76 147.762 175.064 149.618 173.4C151.474 171.736 152.914 170.232 153.938 168.888C154.642 167.928 155.218 167.032 155.666 166.2C156.114 165.368 156.434 164.632 156.626 163.992C155.474 164.12 154.194 164.28 152.786 164.472C151.378 164.6 150.322 164.664 149.618 164.664C147.186 164.6 145.234 163.928 143.762 162.648C142.354 161.368 141.65 159.768 141.65 157.848C141.65 156.76 141.81 155.64 142.13 154.488C142.45 153.272 142.93 152.024 143.57 150.744L146.738 144.408C148.274 141.4 150.45 139.896 153.266 139.896C158.898 139.896 161.714 145.24 161.714 155.928C161.714 158.296 161.426 160.952 160.85 163.896C160.338 166.776 159.41 169.72 158.066 172.728C156.786 175.672 155.026 178.456 152.786 181.08C151.698 181.848 149.874 182.744 147.314 183.768C144.818 184.856 142.066 185.912 139.058 186.936C136.114 187.96 133.394 188.824 130.898 189.528ZM189.884 61.624L188.252 60.76C188.7 59.48 189.276 58.296 189.98 57.208C190.684 56.12 191.644 54.904 192.86 53.56C194.14 52.216 195.836 50.552 197.948 48.568C200.124 46.584 202.876 44.088 206.204 41.08C209.66 37.944 212.444 35.384 214.556 33.4C216.732 31.352 218.268 29.88 219.164 28.984C220.06 28.088 220.924 27.256 221.756 26.488C222.588 25.656 223.42 24.824 224.252 23.992L225.116 24.28C224.86 25.56 224.572 26.68 224.252 27.64C223.996 28.6 223.708 29.432 223.388 30.136C222.364 31.544 220.668 33.432 218.3 35.8C215.932 38.104 212.924 40.856 209.276 44.056C203.58 49.048 199.1 53.016 195.836 55.96C192.572 58.84 190.588 60.728 189.884 61.624ZM154.844 163C154.268 163 153.756 162.776 153.308 162.328C152.796 161.816 152.54 161.048 152.54 160.024C152.54 158.232 153.148 156.92 154.364 156.088C155.516 155.256 156.508 154.84 157.34 154.84C160.156 154.84 162.62 154.072 164.732 152.536C166.844 150.936 168.604 148.824 170.012 146.2C171.484 143.512 172.54 140.568 173.18 137.368C173.372 136.472 173.5 135.608 173.564 134.776C173.692 133.88 173.788 132.696 173.852 131.224C173.98 129.752 174.108 127.704 174.236 125.08C174.428 122.456 174.652 118.936 174.908 114.52C175.228 108.952 175.548 104.28 175.868 100.504C176.252 96.728 176.764 93.4 177.404 90.52C178.044 87.64 178.94 84.792 180.092 81.976C181.18 79.224 182.684 76.568 184.604 74.008C186.524 71.448 188.796 68.92 191.42 66.424C195.068 63.032 199.356 59.128 204.284 54.712C209.212 50.296 215.356 44.792 222.716 38.2L227.996 32.728L228.86 33.112C228.732 33.944 228.412 35.096 227.9 36.568C227.388 38.04 226.716 39.864 225.884 42.04C223.708 44.6 221.052 47.384 217.916 50.392C214.78 53.4 211.196 56.664 207.164 60.184C204.732 62.296 202.268 64.44 199.772 66.616C197.34 68.728 194.94 70.936 192.572 73.24C190.46 75.352 188.796 77.048 187.58 78.328C186.364 79.544 185.436 80.632 184.796 81.592C184.22 82.488 183.772 83.48 183.452 84.568C183.196 85.592 182.908 87 182.588 88.792C182.076 91.8 181.66 95.608 181.34 100.216C181.02 104.824 180.86 110.232 180.86 116.44C180.86 120.408 181.052 124.056 181.436 127.384C181.82 130.712 182.748 133.368 184.22 135.352C185.692 137.336 188.028 138.328 191.228 138.328C193.98 138.328 195.356 140.152 195.356 143.8C195.356 146.232 194.876 148.152 193.916 149.56C192.956 150.968 191.772 151.992 190.364 152.632C189.02 153.208 187.74 153.496 186.524 153.496C183.196 153.496 180.7 152.6 179.036 150.808C177.372 148.952 176.22 147.032 175.58 145.048C173.34 151.576 170.46 156.216 166.94 158.968C163.42 161.656 159.388 163 154.844 163ZM190.125 113.344L189.645 112.672C190.349 112.032 191.341 111.2 192.621 110.176C193.837 109.088 195.149 107.968 196.557 106.816C197.901 105.664 199.117 104.672 200.205 103.84C201.293 102.944 202.029 102.368 202.413 102.112C201.709 101.28 201.229 100.48 200.973 99.712C200.717 98.88 200.589 98.24 200.589 97.792C200.589 96.64 200.941 95.488 201.645 94.336C202.349 93.184 203.245 92.224 204.333 91.456C205.421 90.624 206.509 90.208 207.597 90.208C210.029 90.208 211.245 91.616 211.245 94.432C211.245 96.928 210.317 99.232 208.461 101.344C206.605 103.456 204.077 105.504 200.877 107.488C197.741 109.408 194.157 111.36 190.125 113.344ZM205.869 99.424C206.381 98.912 206.861 98.368 207.309 97.792C207.757 97.216 207.981 96.544 207.981 95.776C207.981 95.072 207.757 94.592 207.309 94.336C206.925 94.016 206.477 93.856 205.965 93.856C205.133 93.856 204.493 94.112 204.045 94.624C203.661 95.072 203.469 95.552 203.469 96.064C203.469 96.448 203.565 96.832 203.757 97.216C204.013 97.6 204.717 98.336 205.869 99.424ZM193.085 187.952C191.741 186.544 190.397 185.232 189.053 184.016C187.709 182.864 186.397 181.776 185.117 180.752V179.984C185.693 179.152 186.557 178.064 187.709 176.72C188.797 175.44 189.917 174.192 191.069 172.976C192.157 171.824 192.957 171.088 193.469 170.768H194.333C196.829 172.368 198.685 173.776 199.901 174.992C201.181 176.272 201.821 177.552 201.821 178.832C201.821 181.136 199.165 184.176 193.853 187.952H193.085ZM186.438 154C183.685 154 182.309 152.176 182.309 148.528C182.309 146.16 182.789 144.272 183.749 142.864C184.709 141.456 185.861 140.432 187.206 139.792C188.614 139.152 189.926 138.832 191.142 138.832C192.998 138.832 194.822 138.224 196.614 137.008C198.406 135.728 200.134 133.392 201.798 130L203.814 130.48C202.214 138.224 199.91 144.08 196.902 148.048C193.894 152.016 190.406 154 186.438 154Z" fill="#FAB415"/>
</svg>
