<svg width="25" height="25" viewBox="0 0 25 25" fill="none" xmlns="http://www.w3.org/2000/svg">
<mask id="mask0_2315_3181" style="mask-type:alpha" maskUnits="userSpaceOnUse" x="0" y="0" width="25" height="25">
<rect x="0.244385" y="0.783203" width="24" height="24" fill="#D9D9D9"/>
</mask>
<g mask="url(#mask0_2315_3181)">
<path d="M7.24436 17.7832H10.4944C10.7069 17.7832 10.885 17.8551 11.0287 17.9989C11.1725 18.1427 11.2444 18.3209 11.2444 18.5335C11.2444 18.7461 11.1725 18.9242 11.0287 19.0678C10.885 19.2114 10.7069 19.2832 10.4944 19.2832H6.64823C6.39215 19.2832 6.17749 19.1965 6.00426 19.0233C5.83101 18.85 5.74438 18.6354 5.74438 18.3793V14.5332C5.74438 14.3207 5.81629 14.1426 5.96011 13.9988C6.10393 13.8551 6.28213 13.7832 6.49471 13.7832C6.70731 13.7832 6.8854 13.8551 7.02898 13.9988C7.17257 14.1426 7.24436 14.3207 7.24436 14.5332V17.7832ZM17.2444 7.78318H13.9943C13.7819 7.78318 13.6037 7.71127 13.46 7.56745C13.3162 7.42365 13.2444 7.24545 13.2444 7.03285C13.2444 6.82027 13.3162 6.64219 13.46 6.4986C13.6037 6.355 13.7819 6.2832 13.9943 6.2832H17.8405C18.0966 6.2832 18.3112 6.36983 18.4845 6.54308C18.6577 6.71631 18.7443 6.93097 18.7443 7.18705V11.0332C18.7443 11.2457 18.6724 11.4238 18.5286 11.5676C18.3848 11.7113 18.2066 11.7832 17.994 11.7832C17.7814 11.7832 17.6033 11.7113 17.4597 11.5676C17.3162 11.4238 17.2444 11.2457 17.2444 11.0332V7.78318Z" fill="#888888"/>
</g>
</svg>
