<svg width="25" height="25" viewBox="0 0 25 25" fill="none" xmlns="http://www.w3.org/2000/svg">
<mask id="mask0_2315_3175" style="mask-type:alpha" maskUnits="userSpaceOnUse" x="0" y="0" width="25" height="25">
<rect x="0.0456543" y="0.976562" width="24" height="24" fill="#D9D9D9"/>
</mask>
<g mask="url(#mask0_2315_3175)">
<path d="M12.0842 20.4765C9.99045 20.4765 8.21702 19.7501 6.7639 18.2973C5.31079 16.8444 4.58423 15.0714 4.58423 12.9781C4.58423 10.8847 5.31079 9.11117 6.7639 7.65734C8.21702 6.20349 9.99045 5.47656 12.0842 5.47656C13.2534 5.47656 14.3598 5.7365 15.4034 6.25639C16.447 6.77625 17.315 7.50991 18.0073 8.45736V6.22656C18.0073 6.01406 18.0792 5.83594 18.223 5.69219C18.3668 5.54844 18.545 5.47656 18.7576 5.47656C18.9702 5.47656 19.1483 5.54844 19.2919 5.69219C19.4354 5.83594 19.5072 6.01406 19.5072 6.22656V10.6881C19.5072 10.9441 19.4206 11.1588 19.2474 11.332C19.0741 11.5053 18.8595 11.5919 18.6034 11.5919H14.1419C13.9294 11.5919 13.7513 11.52 13.6075 11.3762C13.4638 11.2324 13.3919 11.0542 13.3919 10.8416C13.3919 10.629 13.4638 10.4509 13.6075 10.3073C13.7513 10.1637 13.9294 10.0919 14.1419 10.0919H17.3419C16.815 9.12656 16.0842 8.36597 15.1496 7.81019C14.215 7.25442 13.1932 6.97654 12.0842 6.97654C10.4175 6.97654 9.00087 7.55987 7.8342 8.72654C6.66754 9.8932 6.0842 11.3099 6.0842 12.9765C6.0842 14.6432 6.66754 16.0599 7.8342 17.2265C9.00087 18.3932 10.4175 18.9765 12.0842 18.9765C13.2464 18.9765 14.3104 18.6714 15.2761 18.0611C16.2417 17.4509 16.9733 16.6368 17.4707 15.6188C17.5656 15.4368 17.705 15.3095 17.889 15.2371C18.073 15.1647 18.2605 15.1605 18.4516 15.2246C18.6554 15.2887 18.798 15.422 18.8794 15.6246C18.9608 15.8272 18.954 16.0195 18.8592 16.2015C18.2399 17.4964 17.3258 18.5326 16.1168 19.3102C14.9078 20.0877 13.5636 20.4765 12.0842 20.4765Z" fill="#888888"/>
</g>
</svg>
